<?xml version="1.0" standalone="no"?>
<!DOCTYPE svg PUBLIC "-//W3C//DTD SVG 20010904//EN"
 "http://www.w3.org/TR/2001/REC-SVG-20010904/DTD/svg10.dtd">
<svg version="1.0" xmlns="http://www.w3.org/2000/svg"
 width="700.000000pt" height="700.000000pt" viewBox="0 0 700.000000 700.000000"
 preserveAspectRatio="xMidYMid meet">
<metadata>
Created by potrace 1.14, written by Peter Selinger 2001-2017
</metadata>
<g transform="translate(0.000000,700.000000) scale(0.100000,-0.100000)"
fill="#000000" stroke="none">
<path d="M3430 6406 c-25 -7 -58 -19 -74 -28 -16 -8 -176 -162 -356 -342
l-327 -326 -59 29 c-65 31 -174 66 -239 77 -22 3 -43 8 -47 11 -10 5 -221 5
-271 -2 -203 -24 -427 -133 -580 -281 -131 -129 -253 -339 -281 -485 -2 -13
-7 -35 -10 -49 -26 -117 -23 -272 9 -443 8 -41 51 -151 86 -220 95 -187 265
-355 454 -450 231 -115 531 -135 781 -52 328 110 589 402 668 748 16 70 21
119 20 222 -1 167 -20 261 -81 403 l-35 83 326 326 c223 223 333 341 347 371
30 61 36 156 14 221 -45 137 -207 225 -345 187z m-1147 -1167 c167 -45 286
-161 326 -319 77 -305 -173 -579 -491 -538 -79 10 -158 50 -226 113 -245 226
-156 626 162 733 66 22 169 27 229 11z"/>
<path d="M5339 6416 c-2 -2 -33 -6 -69 -9 -171 -16 -362 -96 -515 -217 -232
-185 -378 -487 -379 -785 0 -163 41 -342 107 -468 l14 -28 -116 -115 c-64 -63
-605 -604 -1204 -1203 -1048 -1048 -1088 -1088 -1111 -1076 -57 30 -187 75
-261 90 -87 18 -250 23 -330 11 -27 -4 -61 -9 -75 -11 -44 -6 -159 -45 -228
-77 -245 -113 -453 -347 -536 -599 -61 -187 -66 -413 -15 -599 107 -386 452
-688 844 -737 324 -41 634 64 860 291 244 245 340 560 280 921 -8 50 -62 209
-85 252 l-17 32 1204 1205 1205 1204 46 -23 c76 -38 198 -75 290 -89 621 -89
1177 399 1166 1024 -2 159 -33 288 -99 426 -143 295 -419 507 -737 564 -58 11
-232 22 -239 16z m205 -610 c261 -93 372 -425 216 -650 -91 -134 -221 -198
-385 -192 -81 2 -100 7 -167 39 -92 44 -167 121 -212 217 -27 60 -30 74 -30
175 -1 108 0 113 36 185 102 207 329 301 542 226z m-3820 -3781 c74 -23 128
-55 187 -114 86 -86 124 -172 128 -292 11 -311 -304 -535 -592 -422 -168 66
-272 216 -276 399 -5 199 121 370 314 430 53 16 184 15 239 -1z"/>
<path d="M4675 3199 c-22 -4 -53 -9 -70 -12 -16 -3 -61 -15 -99 -27 -321 -101
-568 -351 -670 -677 -69 -221 -54 -481 41 -701 l35 -83 -323 -324 c-211 -210
-332 -339 -348 -369 -32 -61 -39 -157 -17 -224 53 -159 244 -241 397 -170 44
21 113 84 379 351 l326 326 59 -28 c61 -29 174 -66 233 -76 17 -3 47 -8 65
-11 68 -12 232 -7 329 11 121 23 297 101 403 180 120 89 228 213 295 338 32
60 101 235 99 252 0 3 2 18 6 33 15 70 21 270 10 337 -75 443 -379 770 -801
860 -85 19 -284 27 -349 14z m234 -585 c96 -16 233 -118 283 -211 63 -116 74
-257 28 -372 -66 -168 -228 -279 -405 -279 -296 1 -503 278 -421 563 19 65 82
162 131 202 110 91 236 123 384 97z"/>
</g>
</svg>
