<?xml version="1.0" encoding="UTF-8" standalone="no"?>
<svg
   version="1.0"
   width="700.000000pt"
   height="700.000000pt"
   viewBox="0 0 700.000000 700.000000"
   preserveAspectRatio="xMidYMid meet"
   id="svg3427"
   sodipodi:docname="safari-pinned-tab.svg"
   inkscape:version="1.2.1 (9c6d41e, 2022-07-14)"
   xmlns:inkscape="http://www.inkscape.org/namespaces/inkscape"
   xmlns:sodipodi="http://sodipodi.sourceforge.net/DTD/sodipodi-0.dtd"
   xmlns="http://www.w3.org/2000/svg"
   xmlns:svg="http://www.w3.org/2000/svg">
  <defs
     id="defs3431" />
  <sodipodi:namedview
     id="namedview3429"
     pagecolor="#505050"
     bordercolor="#eeeeee"
     borderopacity="1"
     inkscape:showpageshadow="0"
     inkscape:pageopacity="0"
     inkscape:pagecheckerboard="0"
     inkscape:deskcolor="#505050"
     inkscape:document-units="pt"
     showgrid="false"
     inkscape:zoom="0.25285714"
     inkscape:cx="442.93785"
     inkscape:cy="468.64407"
     inkscape:window-width="864"
     inkscape:window-height="1051"
     inkscape:window-x="864"
     inkscape:window-y="38"
     inkscape:window-maximized="0"
     inkscape:current-layer="svg3427" />
  <metadata
     id="metadata3417">
Created by potrace 1.14, written by Peter Selinger 2001-2017
</metadata>
  <g
     transform="translate(0.000000,700.000000) scale(0.100000,-0.100000)"
     fill="#000000"
     stroke="none"
     id="g3425">
    <path
       d="M3430 6406 c-25 -7 -58 -19 -74 -28 -16 -8 -176 -162 -356 -342 l-327 -326 -59 29 c-65 31 -174 66 -239 77 -22 3 -43 8 -47 11 -10 5 -221 5 -271 -2 -203 -24 -427 -133 -580 -281 -131 -129 -253 -339 -281 -485 -2 -13 -7 -35 -10 -49 -26 -117 -23 -272 9 -443 8 -41 51 -151 86 -220 95 -187 265 -355 454 -450 231 -115 531 -135 781 -52 328 110 589 402 668 748 16 70 21 119 20 222 -1 167 -20 261 -81 403 l-35 83 326 326 c223 223 333 341 347 371 30 61 36 156 14 221 -45 137 -207 225 -345 187z m-1147 -1167 c167 -45 286 -161 326 -319 77 -305 -173 -579 -491 -538 -79 10 -158 50 -226 113 -245 226 -156 626 162 733 66 22 169 27 229 11z"
       id="path3419" />
    <path
       d="M5339 6416 c-2 -2 -33 -6 -69 -9 -171 -16 -362 -96 -515 -217 -232 -185 -378 -487 -379 -785 0 -163 41 -342 107 -468 l14 -28 -116 -115 c-64 -63 -605 -604 -1204 -1203 -1048 -1048 -1088 -1088 -1111 -1076 -57 30 -187 75 -261 90 -87 18 -250 23 -330 11 -27 -4 -61 -9 -75 -11 -44 -6 -159 -45 -228 -77 -245 -113 -453 -347 -536 -599 -61 -187 -66 -413 -15 -599 107 -386 452 -688 844 -737 324 -41 634 64 860 291 244 245 340 560 280 921 -8 50 -62 209 -85 252 l-17 32 1204 1205 1205 1204 46 -23 c76 -38 198 -75 290 -89 621 -89 1177 399 1166 1024 -2 159 -33 288 -99 426 -143 295 -419 507 -737 564 -58 11 -232 22 -239 16z m205 -610 c261 -93 372 -425 216 -650 -91 -134 -221 -198 -385 -192 -81 2 -100 7 -167 39 -92 44 -167 121 -212 217 -27 60 -30 74 -30 175 -1 108 0 113 36 185 102 207 329 301 542 226z m-3820 -3781 c74 -23 128 -55 187 -114 86 -86 124 -172 128 -292 11 -311 -304 -535 -592 -422 -168 66 -272 216 -276 399 -5 199 121 370 314 430 53 16 184 15 239 -1z"
       id="path3421" />
    <path
       d="M4675 3199 c-22 -4 -53 -9 -70 -12 -16 -3 -61 -15 -99 -27 -321 -101 -568 -351 -670 -677 -69 -221 -54 -481 41 -701 l35 -83 -323 -324 c-211 -210 -332 -339 -348 -369 -32 -61 -39 -157 -17 -224 53 -159 244 -241 397 -170 44 21 113 84 379 351 l326 326 59 -28 c61 -29 174 -66 233 -76 17 -3 47 -8 65 -11 68 -12 232 -7 329 11 121 23 297 101 403 180 120 89 228 213 295 338 32 60 101 235 99 252 0 3 2 18 6 33 15 70 21 270 10 337 -75 443 -379 770 -801 860 -85 19 -284 27 -349 14z m234 -585 c96 -16 233 -118 283 -211 63 -116 74 -257 28 -372 -66 -168 -228 -279 -405 -279 -296 1 -503 278 -421 563 19 65 82 162 131 202 110 91 236 123 384 97z"
       id="path3423" />
  </g>
  <path
     style="fill:#34f477;stroke-width:3.9548"
     d="m 252.41199,419.68236 c -23.14017,-7.56342 -41.59615,-19.71395 -58.69866,-38.64438 -36.30997,-40.1908 -45.92553,-98.58832 -23.70987,-143.9955 20.68996,-42.28876 55.41226,-68.4332 102.42894,-77.1247 24.19033,-4.47183 36.58208,-3.13028 66.68971,7.21991 l 18.78314,6.45714 46.83759,-46.26069 c 41.9411,-41.42451 48.29394,-46.260694 60.76828,-46.260694 26.287,0 45.51313,26.787944 34.60421,48.214374 -2.55668,5.02164 -23.94029,28.70653 -47.51913,52.63308 l -42.8706,43.50283 8.09388,23.72881 c 21.34356,62.57287 -7.78793,131.57379 -68.67312,162.65933 -25.15101,12.84109 -70.2905,16.51373 -96.73437,7.87049 z m 68.25567,-76.0356 c 37.35591,-17.72654 39.72978,-79.11147 3.96561,-102.54506 -28.81988,-18.8835 -70.40334,-7.04226 -85.61431,24.37941 -25.67597,53.03947 27.43986,103.88943 81.6487,78.16565 z"
     id="path3433"
     transform="scale(0.75)" />
  <path
     style="fill:#34f477;stroke-width:3.9548"
     d="M 164.16754,843.51515 C 134.07338,831.9636 101.02116,798.49858 89.626211,768.04281 65.152556,702.63113 93.779129,630.97628 157.00791,599.3805 c 20.59161,-10.28977 28.67371,-12.09529 54.21698,-12.11194 18.41628,-0.0119 37.33569,2.60329 48.95148,6.76675 l 18.93343,6.78628 160.66833,-160.66835 160.66834,-160.66833 -7.06553,-22.46314 c -10.47132,-33.29104 -7.19691,-76.60001 7.88675,-104.31364 43.78765,-80.45235 147.79614,-96.367455 211.76056,-32.40305 64.03264,64.03265 48.17368,167.33132 -32.55455,212.04679 -19.48638,10.79353 -24.26528,11.71593 -60.69969,11.71593 -29.84483,0 -42.45899,-1.64241 -51.41243,-6.69408 l -11.8644,-6.69408 -162.68364,162.43904 -162.68365,162.43907 7.91227,17.88698 c 12.07637,27.30067 8.80069,78.24572 -6.88179,107.02897 -32.91012,60.40241 -104.69175,87.33936 -167.99283,63.04145 z m 81.0302,-73.77561 c 17.49153,-9.72348 31.14267,-39.37856 27.64826,-60.06182 -7.02611,-41.58716 -56.332,-63.38235 -92.1026,-40.71303 -29.17706,18.49068 -33.26037,74.27304 -7.03034,96.04202 19.14653,15.89023 47.97959,17.79918 71.48468,4.73283 z M 753.38983,263.27322 c 23.52799,-16.74793 31.86222,-52.3267 18.35301,-78.34897 -12.04617,-23.20414 -42.00035,-35.32521 -68.92528,-27.89088 -18.28333,5.04828 -38.68081,26.25556 -41.78292,43.4418 -5.36422,29.7185 12.7415,62.49219 38.81682,70.26351 15.99021,4.76562 41.31712,1.234 53.53837,-7.46546 z"
     id="path3435"
     transform="scale(0.75)" />
  <path
     style="fill:#34f477;stroke-width:3.9548"
     d="m 443.77484,844.30209 c -12.1713,-9.57394 -16.93321,-27.73261 -10.55684,-40.25657 2.55669,-5.02165 23.94233,-28.70654 47.52365,-52.63309 l 42.87514,-43.50283 -7.58324,-21.75141 c -22.13753,-63.49825 6.21978,-133.3608 66.0824,-162.80402 24.08194,-11.84462 30.22907,-13.17685 60.48086,-13.10768 40.58826,0.0928 61.45035,8.2409 90.37716,35.29855 61.98292,57.97777 53.87788,159.32887 -16.46467,205.88565 -11.25525,7.44938 -31.88633,16.45624 -45.84682,20.01523 -27.50284,7.01139 -45.56919,5.81038 -76.45126,-5.08227 l -18.78314,-6.62515 -46.83759,46.2607 c -41.9411,41.4245 -48.29393,46.26069 -60.76827,46.26069 -7.97046,0 -18.2591,-3.40474 -24.04738,-7.9578 z m 225.0778,-150.47201 c 30.39955,-14.71617 41.95236,-56.78347 23.37899,-85.13001 -16.05599,-24.50454 -58.60628,-33.70168 -82.63328,-17.86097 -37.96516,25.02995 -34.88271,83.94628 5.45223,104.21125 18.07895,9.08318 33.22773,8.73959 53.80206,-1.22027 z"
     id="path3437"
     transform="scale(0.75)" />
</svg>
